<svg xmlns="http://www.w3.org/2000/svg" viewBox="0 0 24 24">
  <path fill="#000000" fill-rule="evenodd" d="M19.154,8.307C18.508,8.307 18,8.768 18,9.415V11.261C18,14.491 15.277,17.168 11.954,17.168C8.631,17.168 5.908,14.491 5.908,11.261V9.415C5.908,8.768 5.4,8.307 4.754,8.307C4.108,8.307 3.692,8.768 3.692,9.415V11.261C3.692,15.368 6.831,18.737 10.846,19.291V20.86H8.954C8.308,20.86 7.8,21.322 7.8,21.968C7.8,22.614 8.308,23.075 8.954,23.075H15C15.646,23.075 16.154,22.614 16.154,21.968C16.154,21.322 15.646,20.86 15,20.86H13.108V19.291C17.169,18.737 20.308,15.368 20.308,11.261V9.415C20.308,8.768 19.8,8.307 19.154,8.307ZM12,14.952C14.031,14.952 15.692,13.29 15.692,11.26V4.568C15.692,2.537 14.077,0.922 12.046,0.922H11.954C9.923,0.922 8.308,2.537 8.308,4.568V11.26C8.308,13.29 9.969,14.952 12,14.952Z"/>
</svg>
