<svg xmlns="http://www.w3.org/2000/svg" viewBox="0 0 24 24">
  <path fill="#000000" fill-rule="evenodd" d="M14.308,11.723L20.308,5.677C20.585,5.4 20.585,4.984 20.308,4.707L19.385,3.738C19.108,3.461 18.692,3.461 18.415,3.738L12.369,9.784C12.185,9.969 11.908,9.969 11.723,9.784L5.677,3.692C5.4,3.415 4.985,3.415 4.708,3.692L3.738,4.661C3.462,4.938 3.462,5.354 3.738,5.631L9.785,11.677C9.969,11.861 9.969,12.138 9.785,12.323L3.692,18.415C3.415,18.692 3.415,19.108 3.692,19.384L4.662,20.354C4.938,20.631 5.354,20.631 5.631,20.354L11.677,14.307C11.861,14.123 12.139,14.123 12.323,14.307L18.369,20.354C18.646,20.631 19.062,20.631 19.338,20.354L20.308,19.384C20.585,19.108 20.585,18.692 20.308,18.415L14.308,12.369C14.123,12.184 14.123,11.908 14.308,11.723Z"/>
</svg>
