<svg xmlns="http://www.w3.org/2000/svg" viewBox="0 0 24 24">
  <path fill="#000000" fill-rule="evenodd" d="M22.385,2.583L21.415,1.614C21.138,1.337 20.631,1.383 20.308,1.753L15.692,6.368V4.568C15.692,2.537 14.077,0.922 12.046,0.922H11.954C9.923,0.922 8.308,2.537 8.308,4.568V11.26C8.308,11.953 8.492,12.645 8.862,13.199L7.246,14.814C6.462,13.845 6,12.599 6,11.26V9.414C6,8.768 5.492,8.307 4.846,8.307C4.2,8.307 3.692,8.768 3.692,9.414V11.26C3.692,13.245 4.431,15.045 5.631,16.43L1.754,20.307C1.431,20.63 1.385,21.138 1.615,21.415L2.585,22.384C2.862,22.661 3.369,22.615 3.692,22.245L22.246,3.691C22.615,3.368 22.662,2.86 22.385,2.583ZM18,10.706V11.26C18,14.491 15.323,17.168 12,17.168H11.585L9.785,19.06C10.154,19.153 10.615,19.245 11.077,19.337V20.768H9C8.354,20.768 7.846,21.276 7.846,21.922C7.846,22.568 8.354,23.076 9,23.076H15.046C15.692,23.076 16.2,22.568 16.2,21.922C16.2,21.276 15.646,20.768 15,20.768H12.923V19.291C17.077,18.737 20.308,15.322 20.308,11.26V9.414C20.308,9.137 20.169,8.86 20.031,8.675L18,10.706Z"/>
</svg>
